<?xml version="1.0" encoding="UTF-8"?>
<svg xmlns="http://www.w3.org/2000/svg" viewBox="0 0 900 420" font-family="Segoe UI, Arial, sans-serif">
  <rect width="900" height="420" fill="#0f172a"/>
  <text x="450" y="30" fill="#f8fafc" font-size="18" text-anchor="middle" font-weight="700">Слои покрытия (от внешнего к внутреннему)</text>

  <ellipse cx="450" cy="230" rx="380" ry="150" fill="none" stroke="#22c55e" stroke-width="3" opacity="0.5"/>
  <text x="780" y="200" fill="#86efac" font-size="11">M+ motion Sky 88-92%</text>

  <ellipse cx="450" cy="230" rx="300" ry="120" fill="none" stroke="#eab308" stroke-width="2" opacity="0.6"/>
  <text x="720" y="250" fill="#fde047" font-size="10">M стабильный 75-85%</text>

  <ellipse cx="450" cy="230" rx="220" ry="95" fill="none" stroke="#2563eb" stroke-width="2"/>
  <text x="650" y="290" fill="#93c5fd" font-size="10">C класс PTZ 60-70%</text>

  <ellipse cx="450" cy="230" rx="150" ry="70" fill="none" stroke="#7c3aed" stroke-width="2"/>
  <text x="580" y="320" fill="#c4b5fd" font-size="10">G гео 2 PTZ 50-65%</text>

  <ellipse cx="450" cy="230" rx="60" ry="35" fill="#dc2626" opacity="0.35" stroke="#fca5a5"/>
  <text x="450" y="235" fill="#fff" font-size="10" text-anchor="middle">T турель</text>
  <text x="450" y="250" fill="#fecaca" font-size="9" text-anchor="middle">R 10-50m</text>

  <rect x="420" y="200" width="60" height="50" fill="#475569" stroke="#94a3b8"/>
  <text x="450" y="228" fill="#f8fafc" font-size="8" text-anchor="middle">куб</text>

  <text x="120" y="100" fill="#dc2626" font-size="11">A горизонт S3</text>
  <text x="120" y="118" fill="#fca5a5" font-size="9">el 0-18</text>

  <text x="120" y="300" fill="#dc2626" font-size="11">S1 швы</text>
  <text x="120" y="318" fill="#fca5a5" font-size="9">az 45 el 25-55</text>

  <text x="120" y="360" fill="#f59e0b" font-size="11">S2 зонт</text>
  <text x="120" y="378" fill="#fbbf24" font-size="9">над кубом h 0-2m</text>

  <rect x="80" y="50" width="740" height="28" rx="4" fill="#1e293b" stroke="#475569"/>
  <text x="450" y="69" fill="#94a3b8" font-size="10" text-anchor="middle">в шве S1 возможен motion без класса PTZ</text>
</svg>
