<?xml version="1.0" encoding="UTF-8"?>
<svg xmlns="http://www.w3.org/2000/svg" viewBox="0 0 900 400" font-family="Segoe UI, Arial, sans-serif">
  <rect width="900" height="400" fill="#0f172a"/>
  <text x="450" y="30" fill="#f8fafc" font-size="18" text-anchor="middle" font-weight="700">$07K =02545=8O BC@5;8</text>

  <rect x="30" y="60" width="140" height="70" rx="6" fill="#334155" stroke="#94a3b8"/>
  <text x="100" y="88" fill="#f1f5f9" font-size="11" text-anchor="middle">1. CUE</text>
  <text x="100" y="108" fill="#94a3b8" font-size="9" text-anchor="middle">B@5: >B core</text>

  <rect x="190" y="60" width="140" height="70" rx="6" fill="#1d4ed8" stroke="#93c5fd"/>
  <text x="260" y="88" fill="#fff" font-size="11" text-anchor="middle">2. COARSE</text>
  <text x="260" y="108" fill="#bfdbfe" font-size="9" text-anchor="middle">R &gt; 50m 8;8 2=5 FOV</text>

  <rect x="350" y="60" width="140" height="70" rx="6" fill="#7c3aed" stroke="#c4b5fd"/>
  <text x="420" y="88" fill="#fff" font-size="11" text-anchor="middle">3. ACQUIRE</text>
  <text x="420" y="108" fill="#ede9fe" font-size="9" text-anchor="middle">F5;L 2 :04@5</text>

  <rect x="510" y="60" width="140" height="70" rx="6" fill="#0f766e" stroke="#5eead4"/>
  <text x="580" y="88" fill="#ecfeff" font-size="11" text-anchor="middle">4. TRACK</text>
  <text x="580" y="108" fill="#ccfbf1" font-size="9" text-anchor="middle">v, C?@5645=85</text>

  <rect x="670" y="60" width="140" height="70" rx="6" fill="#dc2626" stroke="#fca5a5"/>
  <text x="740" y="88" fill="#fff" font-size="11" text-anchor="middle">5. FIRE</text>
  <text x="740" y="108" fill="#fecaca" font-size="9" text-anchor="middle">8m &lt; R d 50m</text>

  <g stroke="#64748b" stroke-width="2" fill="#64748b">
    <line x1="170" y1="95" x2="190" y2="95"/><polygon points="190,90 185,95 190,100"/>
    <line x1="330" y1="95" x2="350" y2="95"/><polygon points="350,90 345,95 350,100"/>
    <line x1="490" y1="95" x2="510" y2="95"/><polygon points="510,90 505,95 510,100"/>
    <line x1="650" y1="95" x2="670" y2="95"/><polygon points="670,90 665,95 670,100"/>
  </g>

  <line x1="100" y1="200" x2="800" y2="200" stroke="#4ade80" stroke-width="2"/>
  <text x="50" y="205" fill="#86efac" font-size="10">0m</text>
  <text x="230" y="205" fill="#fbbf24" font-size="10">R_min ~10m</text>
  <text x="450" y="205" fill="#fbbf24" font-size="10">25m</text>
  <text x="650" y="205" fill="#fbbf24" font-size="10">50m</text>
  <text x="780" y="195" fill="#94a3b8" font-size="9">40;L=>ABL</text>

  <rect x="180" y="220" width="520" height="40" rx="4" fill="#14532d" opacity="0.4" stroke="#22c55e"/>
  <text x="440" y="245" fill="#86efac" font-size="11" text-anchor="middle">@01>G0O 7>=0 FIRE (A5BL @0A:@KB0)</text>

  <rect x="30" y="220" width="140" height="40" rx="4" fill="#7f1d1d" opacity="0.5" stroke="#ef4444"/>
  <text x="100" y="245" fill="#fca5a5" font-size="10" text-anchor="middle">70?@5B &lt; R_min</text>

  <circle cx="120" cy="160" r="8" fill="#ef4444"/>
  <text x="120" y="185" fill="#94a3b8" font-size="9" text-anchor="middle">BC@5;L</text>

  <path d="M 200 150 Q 400 100 600 130 Q 700 140 750 155" fill="none" stroke="#ef4444" stroke-width="2" stroke-dasharray="6 4"/>
  <text x="500" y="115" fill="#fca5a5" font-size="10">B@05:B>@8O F5;8 + lead</text>

  <circle cx="720" cy="155" r="10" fill="none" stroke="#fbbf24" stroke-width="2" stroke-dasharray="3 2"/>
  <text x="720" y="180" fill="#fbbf24" font-size="9" text-anchor="middle">F5=B@ A5B8</text>

  <rect x="80" y="300" width="740" height="70" rx="6" fill="#1e293b" stroke="#475569"/>
  <text x="450" y="328" fill="#94a3b8" font-size="11" text-anchor="middle">t_go = t_?>;QB0 + t_@0A:@KB8O + t_7045@6:8 · p_aim = p_target(t_fire + t_go)</text>
  <text x="450" y="352" fill="#64748b" font-size="10" text-anchor="middle">=0 R=50m, v€H32m/s: t_goH1.9s ’ :@8B8G=> B>G=>5 v >B PTZ 8 TRACK 40Hz</text>
</svg>
